<svg width="24" height="24" viewBox="0 0 24 24" fill="none" xmlns="http://www.w3.org/2000/svg">
<path d="M21.565 6.19817C21.446 5.77396 21.2144 5.3899 20.8946 5.08682C20.5659 4.77441 20.1629 4.55095 19.7238 4.4375C18.0804 4.00434 11.4963 4.00434 11.4963 4.00434C8.75143 3.97311 6.00726 4.11046 3.27925 4.41563C2.84013 4.53745 2.43792 4.76591 2.10839 5.08069C1.78461 5.39222 1.55009 5.77638 1.42758 6.19729C1.13328 7.78272 0.990295 9.39252 1.00054 11.005C0.990039 12.616 1.13268 14.2253 1.42758 15.8127C1.54747 16.2319 1.78111 16.6143 2.10577 16.9232C2.43042 17.2321 2.83471 17.4552 3.27925 17.5734C4.94453 18.0057 11.4963 18.0057 11.4963 18.0057C14.2446 18.0369 16.9923 17.8996 19.7238 17.5944C20.1629 17.4809 20.5659 17.2575 20.8946 16.9451C21.2184 16.6361 21.4486 16.252 21.5641 15.8337C21.8661 14.2489 22.0129 12.6384 22.0025 11.0251C22.0252 9.405 21.8786 7.78694 21.565 6.19729V6.19817ZM9.40308 14.0013V8.00959L14.8811 11.0059L9.40308 14.0013Z" fill="white"/>
</svg>
