<?xml version="1.0" encoding="UTF-8"?>
<svg width="30px" height="22px" viewBox="0 0 30 22" version="1.1" xmlns="http://www.w3.org/2000/svg" xmlns:xlink="http://www.w3.org/1999/xlink">
    <!-- Generator: sketchtool 55.1 (78136) - https://sketchapp.com -->
    <title>119D2D03-1DA1-483A-9A09-C0E70C40B48E-color</title>
    <desc>Created with sketchtool.</desc>
    <g id="portal" stroke="none" stroke-width="1" fill="none" fill-rule="evenodd">
        <g id="Desktop-HD-home-V5---especial" transform="translate(-1160.000000, -4340.000000)" fill="#CE1312">
            <g id="rodapeh_desk" transform="translate(-1.000000, 4255.000000)">
                <path d="M1172.9025,99.5476038 L1172.90156,91.0587447 L1181.00719,95.3178086 L1172.9025,99.5476038 Z M1190.7,89.5877579 C1190.7,89.5877579 1190.40656,87.5059056 1189.5075,86.5891353 C1188.36656,85.3853431 1187.08781,85.3796782 1186.50187,85.3098111 C1182.30375,85.0039062 1176.00656,85.0039062 1176.00656,85.0039062 L1175.99344,85.0039062 C1175.99344,85.0039062 1169.69625,85.0039062 1165.49813,85.3098111 C1164.91125,85.3796782 1163.63344,85.3853431 1162.49156,86.5891353 C1161.5925,87.5059056 1161.3,89.5877579 1161.3,89.5877579 C1161.3,89.5877579 1161,92.0331083 1161,94.4775145 L1161,96.7699124 C1161,99.2152627 1161.3,101.659669 1161.3,101.659669 C1161.3,101.659669 1161.5925,103.741521 1162.49156,104.658292 C1163.63344,105.862084 1165.1325,105.824318 1165.8,105.94989 C1168.2,106.182151 1176,106.253906 1176,106.253906 C1176,106.253906 1182.30375,106.244465 1186.50187,105.93856 C1187.08781,105.867749 1188.36656,105.862084 1189.5075,104.658292 C1190.40656,103.741521 1190.7,101.659669 1190.7,101.659669 C1190.7,101.659669 1191,99.2152627 1191,96.7699124 L1191,94.4775145 C1191,92.0331083 1190.7,89.5877579 1190.7,89.5877579 L1190.7,89.5877579 Z" id="Youtube"></path>
            </g>
        </g>
    </g>
</svg>