<svg width="26" height="51" viewBox="0 0 26 51" fill="none" xmlns="http://www.w3.org/2000/svg">
<path d="M21.7053 0.728565C22.5425 0.726929 23.3539 1.01852 23.9986 1.55273C24.3615 1.85355 24.6614 2.223 24.8812 2.63991C25.1011 3.05682 25.2365 3.513 25.2798 3.98233C25.3231 4.45166 25.2733 4.92492 25.1334 5.375C24.9935 5.82508 24.7662 6.24314 24.4644 6.60523L8.41112 25.8119L23.8911 45.0544C24.1888 45.4209 24.411 45.8427 24.5452 46.2954C24.6793 46.7481 24.7226 47.2229 24.6727 47.6924C24.6227 48.1619 24.4805 48.6169 24.2541 49.0313C24.0278 49.4457 23.7217 49.8112 23.3536 50.1069C22.9829 50.4331 22.5487 50.6792 22.0783 50.8296C21.608 50.9801 21.1116 51.0317 20.6203 50.9812C20.1291 50.9308 19.6536 50.7793 19.2236 50.5363C18.7937 50.2934 18.4186 49.9642 18.1219 49.5694L0.814451 28.0694C0.287409 27.4282 -0.000713348 26.624 -0.000713348 25.794C-0.000713348 24.964 0.287409 24.1597 0.814451 23.5186L18.7311 2.01857C19.0906 1.58492 19.5472 1.24213 20.064 1.01799C20.5807 0.793861 21.143 0.694702 21.7053 0.728565Z" fill="#035299"/>
</svg>
