<svg width="26" height="51" viewBox="0 0 26 51" fill="none" xmlns="http://www.w3.org/2000/svg">
<path d="M3.58964 50.2714C2.75239 50.2731 1.94099 49.9815 1.29631 49.4473C0.933463 49.1465 0.633532 48.777 0.413687 48.3601C0.193843 47.9432 0.0584058 47.487 0.0151339 47.0177C-0.0281379 46.5483 0.021606 46.0751 0.161515 45.625C0.301425 45.1749 0.528748 44.7569 0.830472 44.3948L16.8838 25.1881L1.40381 5.9456C1.10616 5.57907 0.883875 5.15733 0.749744 4.70461C0.615614 4.25189 0.572278 3.77713 0.622226 3.30761C0.672175 2.83809 0.814422 2.38308 1.0408 1.96871C1.26717 1.55435 1.5732 1.18881 1.94131 0.893101C2.31206 0.566886 2.74624 0.320828 3.21659 0.170367C3.68695 0.0199064 4.18333 -0.0317069 4.67458 0.0187639C5.16583 0.0692348 5.64135 0.220701 6.07128 0.463658C6.50122 0.706615 6.8763 1.03582 7.17297 1.4306L24.4805 22.9306C25.0075 23.5718 25.2956 24.376 25.2956 25.206C25.2956 26.036 25.0075 26.8403 24.4805 27.4814L6.56381 48.9814C6.20434 49.4151 5.7477 49.7579 5.23095 49.982C4.7142 50.2061 4.15189 50.3053 3.58964 50.2714Z" fill="#035299"/>
</svg>
