<svg width="12" height="8" viewBox="0 0 12 8" fill="none" xmlns="http://www.w3.org/2000/svg">
<path d="M4 7.42857C4 7.27702 4.05268 7.13167 4.14645 7.02451C4.24021 6.91735 4.36739 6.85714 4.5 6.85714H7.5C7.63261 6.85714 7.75979 6.91735 7.85355 7.02451C7.94732 7.13167 8 7.27702 8 7.42857C8 7.58012 7.94732 7.72547 7.85355 7.83263C7.75979 7.9398 7.63261 8 7.5 8H4.5C4.36739 8 4.24021 7.9398 4.14645 7.83263C4.05268 7.72547 4 7.58012 4 7.42857ZM2 4C2 3.84845 2.05268 3.7031 2.14645 3.59594C2.24021 3.48878 2.36739 3.42857 2.5 3.42857H9.5C9.63261 3.42857 9.75979 3.48878 9.85355 3.59594C9.94732 3.7031 10 3.84845 10 4C10 4.15155 9.94732 4.2969 9.85355 4.40406C9.75979 4.51122 9.63261 4.57143 9.5 4.57143H2.5C2.36739 4.57143 2.24021 4.51122 2.14645 4.40406C2.05268 4.2969 2 4.15155 2 4ZM0 0.571429C0 0.419876 0.0526785 0.274531 0.146447 0.167368C0.240215 0.060204 0.367392 0 0.5 0H11.5C11.6326 0 11.7598 0.060204 11.8536 0.167368C11.9473 0.274531 12 0.419876 12 0.571429C12 0.722981 11.9473 0.868326 11.8536 0.975489C11.7598 1.08265 11.6326 1.14286 11.5 1.14286H0.5C0.367392 1.14286 0.240215 1.08265 0.146447 0.975489C0.0526785 0.868326 0 0.722981 0 0.571429Z" fill="black"/>
</svg>