<svg width="45" height="45" viewBox="0 0 45 45" fill="none" xmlns="http://www.w3.org/2000/svg">
<path d="M22.5 25.3125C29.4873 25.3125 35.1562 19.6436 35.1562 12.6562C35.1562 5.66895 29.4873 0 22.5 0C15.5127 0 9.84375 5.66895 9.84375 12.6562C9.84375 19.6436 15.5127 25.3125 22.5 25.3125ZM33.75 28.125H28.9072C26.9561 29.0215 24.7852 29.5312 22.5 29.5312C20.2148 29.5312 18.0527 29.0215 16.0928 28.125H11.25C5.03613 28.125 0 33.1611 0 39.375V40.7812C0 43.1104 1.88965 45 4.21875 45H40.7812C43.1104 45 45 43.1104 45 40.7812V39.375C45 33.1611 39.9639 28.125 33.75 28.125Z" fill="#FBF6C0"/>
</svg>
