<?xml version="1.0" encoding="UTF-8"?>
<svg width="30px" height="30px" viewBox="0 0 30 30" version="1.1" xmlns="http://www.w3.org/2000/svg" xmlns:xlink="http://www.w3.org/1999/xlink">
    <g id="portal" stroke="none" stroke-width="1" fill="none" fill-rule="evenodd">
        <g id="Desktop-HD-home-V5---especial" transform="translate(-969.000000, -4336.000000)" fill="#4460A0">
            <g id="rodapeh_desk" transform="translate(-1.000000, 4255.000000)">
                <path d="M986.023972,111 L971.65577,111 C970.741045,111 970,110.258495 970,109.344127 L970,82.6557569 C970,81.7411561 970.741162,81 971.65577,81 L998.344347,81 C999.258722,81 1000,81.7411561 1000,82.6557569 L1000,109.344127 C1000,110.258611 999.258605,111 998.344347,111 L990.699566,111 L990.699566,99.3823467 L994.599076,99.3823467 L995.182972,94.854741 L990.699566,94.854741 L990.699566,91.9641509 C990.699566,90.6533046 991.06357,89.7600061 992.943306,89.7600061 L995.34082,89.7589584 L995.34082,85.7094316 C994.926179,85.6542552 993.50299,85.5309814 991.84722,85.5309814 C988.390521,85.5309814 986.023972,87.6409539 986.023972,91.5157555 L986.023972,94.854741 L982.114451,94.854741 L982.114451,99.3823467 L986.023972,99.3823467 L986.023972,111 L986.023972,111 Z" id="Facebook"></path>
            </g>
        </g>
    </g>
</svg>
