<svg xmlns="http://www.w3.org/2000/svg" width="30" height="30" viewBox="0 0 30 30"><path d="M15 0c4.074 0 4.584.017 6.184.09 1.597.073 2.687.327 3.641.697a7.353 7.353 0 0 1 2.657 1.73 7.353 7.353 0 0 1 1.73 2.657c.371.955.625 2.045.697 3.641.073 1.6.09 2.111.09 6.185s-.017 4.585-.09 6.184c-.073 1.597-.326 2.687-.697 3.642a7.353 7.353 0 0 1-1.73 2.656 7.354 7.354 0 0 1-2.657 1.73c-.954.371-2.044.625-3.64.698-1.6.073-2.111.09-6.185.09s-4.585-.017-6.185-.09c-1.596-.073-2.687-.327-3.64-.697a7.353 7.353 0 0 1-2.658-1.73 7.353 7.353 0 0 1-1.73-2.657C.417 23.87.163 22.78.09 21.184.017 19.584 0 19.074 0 15s.017-4.585.09-6.185C.163 7.22.417 6.13.787 5.175a7.353 7.353 0 0 1 1.73-2.657A7.352 7.352 0 0 1 5.174.788C6.128.416 7.22.162 8.815.09 10.415.017 10.926 0 15 0zm0 2.703c-4.005 0-4.48.015-6.061.087-1.463.067-2.257.311-2.786.517-.7.272-1.2.597-1.724 1.122a4.647 4.647 0 0 0-1.123 1.724c-.205.529-.45 1.323-.516 2.786-.072 1.581-.087 2.056-.087 6.061s.015 4.48.087 6.061c.067 1.463.311 2.257.516 2.786.272.7.598 1.2 1.123 1.724.524.525 1.024.85 1.724 1.122.529.206 1.323.45 2.786.517 1.581.072 2.055.087 6.06.087 4.006 0 4.48-.015 6.062-.087 1.462-.067 2.257-.311 2.785-.517.7-.272 1.2-.597 1.725-1.122a4.647 4.647 0 0 0 1.122-1.724c.206-.529.45-1.323.517-2.786.072-1.581.087-2.056.087-6.061s-.015-4.48-.087-6.061c-.067-1.463-.311-2.257-.517-2.786-.272-.7-.597-1.2-1.122-1.724a4.647 4.647 0 0 0-1.725-1.122c-.528-.206-1.323-.45-2.785-.517-1.582-.072-2.056-.087-6.061-.087Zm0 4.594a7.703 7.703 0 1 1 0 15.406 7.703 7.703 0 0 1 0-15.406zM15 20a5 5 0 1 0 0-10 5 5 0 0 0 0 10zm9.807-13.007a1.8 1.8 0 1 1-3.6 0 1.8 1.8 0 0 1 3.6 0z"/></svg>
