<svg width="24" height="24" viewBox="0 0 24 24" fill="none" xmlns="http://www.w3.org/2000/svg">
<path d="M 21.935586,7.9030789 C 21.924369,7.0633202 21.766884,6.2319105 21.470238,5.4460489 21.212908,4.7831719 20.819973,4.1811663 20.31642,3.6784841 19.812977,3.1758019 19.209913,2.7835087 18.545987,2.5266626 17.768889,2.2354446 16.947922,2.0779885 16.118181,2.06098 15.049769,2.013303 14.711032,1.9999978 11.998907,1.9999978 c -2.7121568,0 -3.0597794,0 -4.120417,0.060982 C 7.0490373,2.0781111 6.2285032,2.235578 5.451794,2.5266629 4.7877124,2.7833313 4.1846036,3.175558 3.6810615,3.6782624 3.1775305,4.1809668 2.784639,4.7830722 2.5275426,5.4460489 2.2352618,6.221222 2.0778764,7.0405794 2.0621945,7.8687072 2.014438,8.936451 2,9.274625 2,11.982281 c 0,2.707611 0,3.053547 0.062194,4.113529 0.016659,0.829359 0.1732561,1.64763 0.465348,2.424876 0.2575296,0.662711 0.6507098,1.26455 1.1544185,1.767044 0.5037087,0.502494 1.1068619,0.894554 1.7709436,1.151233 0.7745768,0.302917 1.5952552,0.47156 2.4266957,0.498947 C 8.9491233,21.98558 9.2878608,22 12.000018,22 c 2.712124,0 3.059748,0 4.120384,-0.06209 0.829741,-0.01641 1.650708,-0.173412 2.427806,-0.464574 0.663815,-0.257234 1.266658,-0.649627 1.770099,-1.152232 0.503443,-0.502604 0.896601,-1.104554 1.154153,-1.767154 0.292094,-0.776138 0.44869,-1.594409 0.465348,-2.424876 0.04776,-1.066635 0.06219,-1.404809 0.06219,-4.11353 -0.0023,-2.707656 -0.0023,-3.051374 -0.06442,-4.1124651 z m -9.943342,9.1994931 c -2.8365463,0 -5.1344103,-2.29404 -5.1344103,-5.125835 0,-2.831838 2.297864,-5.125879 5.1344103,-5.125879 1.361726,0 2.667589,0.5400366 3.630491,1.501316 0.962904,0.96128 1.503885,2.265103 1.503885,3.624563 0,1.35946 -0.540981,2.66315 -1.503885,3.624451 -0.962903,0.961303 -2.268765,1.501384 -3.630491,1.501384 z m 5.338729,-9.2460613 c -0.663038,0 -1.197244,-0.5344262 -1.197244,-1.1952519 0,-0.1568907 0.03087,-0.3122513 0.09107,-0.4571895 0.06008,-0.1449493 0.148267,-0.2766598 0.259439,-0.3875921 0.111062,-0.1109433 0.243005,-0.1989351 0.388161,-0.2589749 0.14527,-0.06004 0.300866,-0.090941 0.458018,-0.090941 0.157152,0 0.312749,0.030902 0.457908,0.090941 0.145156,0.06004 0.277099,0.1480316 0.38827,0.2589749 0.111063,0.1109323 0.199246,0.2426428 0.259441,0.3875921 0.06008,0.1449382 0.09107,0.3002988 0.09107,0.4571895 0,0.6608257 -0.535316,1.1952519 -1.196133,1.1952519 z" fill="currentColor"/>
<path d="m 11.992355,15.306478 c 1.841957,0 3.335179,-1.490738 3.335179,-3.32963 0,-1.838892 -1.493222,-3.329664 -3.335179,-3.329664 -1.841956,0 -3.3351682,1.490772 -3.3351682,3.329664 0,1.838892 1.4932122,3.32963 3.3351682,3.32963 z" fill="currentColor"/>
</svg>
