<?xml version="1.0" encoding="UTF-8"?>
<svg width="31px" height="26px" viewBox="0 0 31 26" version="1.1" xmlns="http://www.w3.org/2000/svg" xmlns:xlink="http://www.w3.org/1999/xlink">
    <g id="portal" stroke="none" stroke-width="1" fill="none" fill-rule="evenodd">
        <g id="Desktop-HD-home-V5---especial" transform="translate(-1096.000000, -4341.000000)" fill="#00AAEC">
            <g id="rodapeh_desk" transform="translate(-1.000000, 4255.000000)">
                <path d="M1127.33333,89.4634584 C1126.23103,89.9654447 1125.0442,90.3049174 1123.79926,90.4565968 C1125.07061,89.6765317 1126.04613,88.4396231 1126.50572,86.966167 C1125.31537,87.6884494 1124,88.2139099 1122.59482,88.4956 C1121.47491,87.2695256 1119.87427,86.5039062 1118.10284,86.5039062 C1114.70611,86.5039062 1111.95034,89.3298362 1111.95034,92.8148488 C1111.95034,93.3096123 1112.00317,93.7899301 1112.10882,94.2521908 C1106.99348,93.9885577 1102.45924,91.4786264 1099.42173,87.6559467 C1098.89171,88.5913024 1098.58884,89.6765317 1098.58884,90.8321836 C1098.58884,93.0206993 1099.67529,94.9528048 1101.32699,96.0849825 C1100.31977,96.0542854 1099.3689,95.7671782 1098.53777,95.2976946 L1098.53777,95.37534 C1098.53777,98.434206 1100.65962,100.985669 1103.47702,101.563495 C1102.96108,101.711562 1102.41697,101.785596 1101.85526,101.785596 C1101.45906,101.785596 1101.07167,101.747677 1100.6966,101.673643 C1101.48019,104.179963 1103.75172,106.005531 1106.44585,106.054285 C1104.33985,107.748038 1101.68445,108.757427 1098.8019,108.757427 C1098.30534,108.757427 1097.81405,108.728536 1097.33333,108.670753 C1100.0574,110.458402 1103.29389,111.503906 1106.76809,111.503906 C1118.09051,111.503906 1124.27998,101.888522 1124.27998,93.5479655 C1124.27998,93.2734982 1124.2747,92.9990308 1124.26413,92.7299806 C1125.46681,91.8397676 1126.51101,90.7292584 1127.33333,89.4634584" id="Twitter"></path>
            </g>
        </g>
    </g>
</svg>
