<svg width="24" height="24" viewBox="0 0 24 24" fill="none" xmlns="http://www.w3.org/2000/svg">
<path d="M 23.497505,6.5077114 C 23.361536,6.0230104 23.096911,5.5841846 22.731508,5.2378864 22.355937,4.8809277 21.89547,4.625603 21.393756,4.4959753 19.516012,4.0010481 11.99304,4.0010481 11.99304,4.0010481 8.8567597,3.9653648 5.7212796,4.1223005 2.6042638,4.4709867 2.1025267,4.6101779 1.6429628,4.8712156 1.2664428,5.2308822 0.89649275,5.5868355 0.62853095,6.0257755 0.48855135,6.5067059 0.15228515,8.3182133 -0.01108911,10.157566 6.1675283e-4,11.99998 -0.01138165,13.840704 0.15159955,15.679485 0.48855135,17.493244 c 0.136986,0.478976 0.4039423,0.915905 0.77489785,1.268853 0.3709441,0.352949 0.8328846,0.607862 1.3408146,0.742917 1.9027438,0.493945 9.3887762,0.493945 9.3887762,0.493945 3.140199,0.03565 6.279712,-0.12123 9.400716,-0.469951 0.501714,-0.129684 0.962181,-0.38494 1.337752,-0.741888 0.369973,-0.353062 0.632999,-0.791934 0.764969,-1.269882 0.345064,-1.810788 0.512797,-3.65094 0.500914,-5.494291 0.02594,-1.851122 -0.141567,-3.6999119 -0.499886,-5.5162411 z M 9.6013328,15.423543 V 8.5774343 l 6.2591692,3.4235747 z" fill="currentColor"/>
</svg>
